HIERARCHY
ROOT hip
{
	OFFSET 0.000000 0.000000 0.000000 
	CHANNELS 6 Xposition Yposition Zposition Xrotation Zrotation Yrotation
	JOINT abdomen
	{
		OFFSET 0.000000 3.402643 0.000000 
		CHANNELS 3 Xrotation Zrotation Yrotation
		JOINT chest
		{
			OFFSET 0.000000 8.438565 -0.680529 
			CHANNELS 3 Xrotation Zrotation Yrotation
			JOINT neck
			{
				OFFSET 0.000000 10.207942 -0.272212 
				CHANNELS 3 Xrotation Zrotation Yrotation
				JOINT head
				{
					OFFSET 0.000000 3.130431 0.000000 
					CHANNELS 3 Xrotation Zrotation Yrotation
					End Site
					{
						OFFSET 0.000000 3.130435 0.000000 
					}
				}
			}
			JOINT lCollar
			{
				OFFSET 3.470700 6.669187 -0.816635 
				CHANNELS 3 Yrotation Zrotation Xrotation
				JOINT lShldr
				{
					OFFSET 3.198488 0.000000 0.000000 
					CHANNELS 3 Zrotation Yrotation Xrotation
					JOINT lForeArm
					{
						OFFSET 10.139888 0.000000 0.000000 
						CHANNELS 3 Yrotation Zrotation Xrotation
						JOINT lHand
						{
							OFFSET 8.370511 0.000000 0.000000 
							CHANNELS 3 Zrotation Yrotation Xrotation
							End Site
							{
								OFFSET 4.083176 0.000000 0.000000 
							}
						}
					}
				}
			}
			JOINT rCollar
			{
				OFFSET -3.470700 6.669187 -0.816635 
				CHANNELS 3 Yrotation Zrotation Xrotation
				JOINT rShldr
				{
					OFFSET -3.198488 0.000000 0.000000 
					CHANNELS 3 Zrotation Yrotation Xrotation
					JOINT rForeArm
					{
						OFFSET -10.139888 0.000000 0.000000 
						CHANNELS 3 Yrotation Zrotation Xrotation
						JOINT rHand
						{
							OFFSET -8.370511 0.000000 0.000000 
							CHANNELS 3 Zrotation Yrotation Xrotation
							End Site
							{
								OFFSET -4.083176 0.000000 0.000000 
							}
						}
					}
				}
			}
		}
	}
	JOINT lThigh
	{
		OFFSET 5.308129 -1.633274 1.361059 
		CHANNELS 3 Xrotation Zrotation Yrotation
		JOINT lShin
		{
			OFFSET -2.041588 -20.007561 0.000000 
			CHANNELS 3 Xrotation Zrotation Yrotation
			JOINT lFoot
			{
				OFFSET 0.000000 -19.190928 -1.224953 
				CHANNELS 3 Xrotation Yrotation Zrotation
				End Site
				{
					OFFSET 0.000000 -2.449906 4.627600 
				}
			}
		}
	}
	JOINT rThigh
	{
		OFFSET -5.308129 -1.633274 1.361059 
		CHANNELS 3 Xrotation Zrotation Yrotation
		JOINT rShin
		{
			OFFSET 2.041588 -20.007561 0.000000 
			CHANNELS 3 Xrotation Zrotation Yrotation
			JOINT rFoot
			{
				OFFSET 0.000000 -19.190928 -1.224953 
				CHANNELS 3 Xrotation Yrotation Zrotation
				End Site
				{
					OFFSET 0.000000 -2.449906 4.627600 
				}
			}
		}
	}
}
MOTION
Frames: 8
Frame Time: 0.033333
20.061914 42.789783 -2.299078 -10.175780 11.982422 -144.548752 10.370376 -8.712459 -6.345483 4.462890 32.031250 18.994141 -8.603516 0.000000 0.000000 -12.998047 -14.052733 37.597660 2.000000 -2.000000 0.000000 -84.091797 -17.890625 -13.027343 -31.936123 -0.804559 2.673050 1.649248 -3.400840 -3.509154 -2.000000 2.000000 0.000000 72.675781 21.357422 -5.498047 71.268585 0.416498 3.265890 -1.668799 3.381294 -3.509732 -22.243614 21.934807 28.892422 20.167334 -3.809590 -1.563995 -3.873616 2.514895 0.036634 -20.823959 -11.657241 3.093303 22.592285 3.666983 1.657349 -13.432520 -3.635466 0.032409 
19.029644 42.917660 -2.034734 -9.814452 12.753907 -144.216583 10.370376 -8.712459 -6.345483 4.570312 30.175779 19.394531 -8.603516 0.000000 0.000000 -12.880859 -13.701171 36.687141 2.000000 -2.000000 0.000000 -87.216797 -21.503904 -5.111000 -35.704823 -0.753466 2.709087 1.649248 -3.400840 -3.509154 -2.000000 2.000000 0.000000 74.541016 21.630861 -4.410461 69.228409 0.428607 3.227499 -1.668799 3.381294 -3.509732 -22.488506 21.625467 27.714243 20.896263 -3.793058 -1.584929 -4.782424 3.274382 0.021212 -20.457825 -11.454477 4.788726 22.264112 3.677521 1.635273 -12.230341 -7.121778 0.010991 
17.987482 43.022530 -1.807887 -9.472656 13.378907 -144.206726 10.370376 -8.712459 -6.345483 4.472659 27.988285 19.858097 -8.603516 0.000000 0.000000 -12.490236 -12.763671 35.683598 2.000000 -2.000000 0.000000 -90.166016 -24.462891 2.470703 -39.033852 -0.711531 2.755459 1.649248 -3.400840 -3.509154 -2.000000 2.000000 0.000000 76.865234 22.080078 -3.551017 67.090584 0.430969 3.188443 -1.668799 3.381294 -3.509732 -22.361883 21.275133 27.127180 21.554491 -3.774169 -1.620459 -5.934483 3.980237 0.056626 -20.929880 -10.973710 6.287530 23.455036 3.647824 1.725679 -9.999841 -11.670126 0.023123 
16.988480 43.093147 -1.628839 -9.160156 13.906251 -144.265228 10.370376 -8.712459 -6.345483 4.130859 25.654297 20.131180 -8.603516 0.000000 0.000000 -11.953126 -11.357421 34.580082 2.000000 -2.000000 0.000000 -92.773438 -26.787109 9.272944 -41.650200 -0.679932 2.792790 1.649248 -3.400840 -3.509154 -2.000000 2.000000 0.000000 79.375000 22.744143 -2.740364 65.069733 0.442488 3.159795 -1.668799 3.381294 -3.509732 -22.078741 20.914040 26.881346 22.152496 -3.755137 -1.650905 -7.156953 4.608223 0.031792 -22.158854 -10.309721 6.535513 26.131454 3.564250 1.882795 -6.966180 -16.451246 0.040542 
16.070604 43.138779 -1.519008 -8.847656 14.414064 -144.111328 10.370376 -8.712459 -6.345483 3.652345 23.447266 20.179668 -8.603516 0.000000 0.000000 -11.425784 -9.785156 33.408207 2.000000 -2.000000 0.000000 -95.107422 -28.603516 14.907434 -43.280643 -0.659259 2.811100 1.649248 -3.400840 -3.509154 -2.000000 2.000000 0.000000 81.816406 23.505859 -1.855469 63.205341 0.454596 3.121402 -1.668799 3.381294 -3.509732 -21.765276 20.579353 26.905132 22.668816 -3.741620 -1.705684 -8.379303 4.748214 0.041213 -23.717834 -9.608513 4.695313 29.541348 3.432671 2.118502 -3.972517 -19.708746 0.004433 
15.250676 43.182312 -1.503289 -8.505859 14.931641 -143.581467 10.370376 -8.712459 -6.345483 3.095703 21.591795 19.984064 -8.603516 0.000000 0.000000 -11.044923 -8.349609 32.265629 2.000000 -2.000000 0.000000 -97.226563 -29.980471 18.959963 -43.807777 -0.648922 2.820255 1.649248 -3.400840 -3.509154 -2.000000 2.000000 0.000000 84.023438 24.335936 -0.830078 61.370029 0.475862 3.093343 -1.668799 3.381294 -3.509732 -21.463154 20.317360 27.160549 22.957380 -3.731275 -1.724489 -9.397791 4.239574 0.014888 -25.115759 -8.974076 0.807310 32.459427 3.334222 2.273625 -2.029575 -19.370771 0.008533 
14.528693 43.247738 -1.599739 -8.222656 15.527344 -142.822266 10.370376 -8.712459 -6.345483 2.548827 20.175783 19.638674 -8.603516 0.000000 0.000000 -10.859377 -7.333984 31.298830 2.000000 -2.000000 0.000000 -99.208984 -30.927732 21.235216 -43.348785 -0.658670 2.820846 1.649248 -3.400840 -3.509154 -2.000000 2.000000 0.000000 85.986328 25.263672 0.404558 59.329647 0.487380 3.064695 -1.668799 3.381294 -3.509732 -21.102486 20.172514 27.524914 22.957127 -3.735162 -1.715476 -10.131756 3.294795 0.017610 -26.024513 -8.300692 -4.623744 33.632874 3.281027 2.314720 -1.929859 -13.891034 0.042332 
13.897732 43.345310 -1.816086 -7.998047 16.152344 -142.001953 10.370376 -8.712459 -6.345483 1.962892 19.257814 19.251266 -8.603516 0.000000 0.000000 -10.810550 -6.738281 30.634768 2.000000 -2.000000 0.000000 -100.898438 -31.406252 21.879677 -42.157806 -0.669596 2.801945 1.649248 -3.400840 -3.509154 -2.000000 2.000000 0.000000 87.695313 26.289063 1.806641 56.947678 0.499487 3.026302 -1.668799 3.381294 -3.509732 -20.769020 20.119213 27.834572 22.719782 -3.732060 -1.707527 -10.616406 2.317844 0.041181 -26.399662 -7.379903 -10.695032 32.225643 3.329787 2.216733 -3.280833 -3.711881 0.042584 
